<?xml version="1.0" standalone="no"?>
<!DOCTYPE svg PUBLIC "-//W3C//DTD SVG 20010904//EN"
 "http://www.w3.org/TR/2001/REC-SVG-20010904/DTD/svg10.dtd">
<svg version="1.0" xmlns="http://www.w3.org/2000/svg"
 width="602.000000pt" height="602.000000pt" viewBox="0 0 602.000000 602.000000"
 preserveAspectRatio="xMidYMid meet">
<metadata>
Created by potrace 1.11, written by Peter Selinger 2001-2013
</metadata>
<g transform="translate(0.000000,602.000000) scale(0.100000,-0.100000)"
fill="#000000" stroke="none">
<path d="M3190 5904 c0 -16 5 -62 10 -103 7 -51 7 -78 -1 -87 -6 -7 -12 -32
-13 -56 -2 -24 -7 -68 -11 -98 -3 -30 -8 -91 -10 -135 -3 -44 -6 -120 -9 -170
-3 -49 -8 -150 -12 -222 -3 -73 -9 -133 -12 -133 -24 0 -159 105 -262 203 -67
65 -176 145 -262 193 -47 27 -117 66 -155 87 -37 21 -89 53 -115 70 -109 74
-120 79 -145 68 -30 -14 -29 -24 2 -41 31 -16 32 -26 3 -33 -21 -6 -21 -7 -3
-27 10 -11 25 -20 34 -20 9 -1 31 -9 50 -19 32 -17 33 -19 14 -25 -11 -4 -23
-16 -26 -26 -3 -11 -13 -20 -24 -20 -10 0 -28 -16 -41 -35 -12 -19 -28 -35
-35 -35 -7 0 -37 -16 -67 -35 -30 -20 -98 -57 -150 -83 -52 -26 -98 -51 -102
-56 -3 -5 -53 7 -112 27 -72 24 -106 31 -106 23 0 -13 41 -56 54 -56 4 0 22
-11 40 -25 18 -14 38 -25 43 -25 6 0 16 -6 23 -14 6 -8 44 -27 83 -42 40 -15
77 -30 82 -34 6 -4 67 -26 136 -49 69 -23 134 -48 145 -55 17 -13 16 -15 -12
-39 -16 -15 -32 -27 -35 -27 -4 0 -26 -26 -50 -57 -23 -32 -47 -62 -53 -66
-14 -10 -78 -2 -168 22 -150 41 -217 52 -238 41 -18 -10 -19 -13 -6 -25 22
-23 188 -92 238 -99 25 -4 53 -13 63 -20 17 -12 16 -17 -18 -87 -21 -41 -48
-87 -61 -103 l-23 -30 -104 18 c-57 10 -112 22 -121 27 -13 7 -18 6 -18 -4 0
-20 94 -77 148 -91 30 -8 48 -19 50 -29 4 -18 -24 -70 -120 -229 -32 -53 -58
-100 -58 -106 0 -5 -9 -17 -20 -27 -16 -14 -24 -15 -51 -6 -127 44 -219 -36
-219 -192 0 -57 5 -79 35 -138 19 -39 35 -79 35 -88 0 -9 -11 -39 -24 -67 -33
-68 -37 -91 -21 -128 8 -17 24 -64 35 -103 12 -40 25 -75 30 -78 4 -3 11 -21
14 -41 9 -48 27 -84 40 -84 13 0 66 -87 86 -140 7 -19 19 -42 25 -50 6 -8 35
-54 64 -102 29 -47 74 -106 99 -130 26 -24 67 -66 93 -93 25 -28 54 -57 65
-66 32 -27 64 -68 64 -85 0 -9 9 -27 20 -41 42 -54 19 -103 -49 -103 -17 0
-35 -8 -43 -18 -16 -22 -76 -47 -148 -62 -30 -7 -76 -19 -102 -28 l-47 -16
-21 27 c-18 22 -25 25 -36 16 -8 -6 -14 -24 -14 -39 0 -38 -51 -70 -110 -70
-48 0 -100 -31 -100 -60 0 -21 -13 -27 -78 -36 l-49 -6 -6 65 c-13 137 -113
265 -211 269 -48 2 -84 -32 -126 -119 -38 -77 -37 -122 5 -177 20 -26 24 -38
16 -48 -6 -7 -25 -32 -41 -55 -17 -25 -38 -43 -49 -43 -30 0 -69 -37 -111
-109 -46 -77 -50 -115 -20 -175 28 -56 62 -92 102 -109 33 -14 34 -17 46 -93
16 -104 65 -203 113 -226 56 -28 74 -23 108 28 17 26 33 62 37 80 3 18 13 39
21 46 13 10 21 5 52 -30 20 -23 41 -42 47 -42 6 0 17 -11 24 -24 15 -28 83
-60 110 -51 23 7 44 57 35 84 -3 11 0 31 7 43 28 51 16 238 -18 278 -7 9 -13
24 -12 35 0 11 -2 36 -6 56 -8 35 -7 36 45 62 61 30 75 25 84 -32 4 -20 20
-75 36 -124 16 -48 29 -102 29 -120 0 -39 30 -105 58 -130 18 -17 25 -17 58
-7 21 7 52 22 71 32 22 14 42 18 59 14 21 -6 32 0 60 28 42 43 136 81 165 66
10 -6 19 -12 19 -13 0 -7 -42 -131 -59 -177 -20 -53 -42 -80 -67 -80 -6 0 -17
-6 -23 -14 -10 -11 -7 -19 10 -35 21 -19 21 -22 7 -53 -9 -18 -21 -51 -28 -73
-16 -50 -27 -65 -50 -65 -10 0 -28 -9 -41 -19 l-24 -19 26 -36 26 -37 -19 -97
c-19 -94 -38 -132 -64 -132 -24 0 -27 -23 -6 -41 19 -15 21 -26 19 -86 -2 -63
1 -73 26 -106 28 -37 29 -57 1 -57 -15 0 -18 -18 -6 -36 4 -7 89 -19 202 -29
110 -9 221 -25 255 -35 38 -12 64 -15 71 -9 7 6 99 5 246 -1 156 -7 244 -7
262 -1 15 6 77 8 154 4 70 -3 149 -3 174 1 42 6 47 10 53 37 4 17 6 57 5 90
-3 96 -3 100 4 189 3 47 12 117 21 155 8 39 15 86 15 105 0 19 10 69 21 110
12 41 23 101 26 133 3 36 10 60 18 63 8 3 44 -13 81 -35 37 -23 73 -41 80 -41
7 0 22 -13 33 -29 21 -29 102 -81 126 -81 8 0 27 -14 43 -30 17 -17 34 -30 39
-30 4 0 28 31 53 68 25 37 50 72 56 77 6 6 24 28 40 50 52 70 120 135 143 135
27 0 142 -60 148 -78 3 -7 -2 -32 -10 -55 -9 -23 -19 -60 -22 -82 -6 -35 -19
-71 -46 -127 -5 -10 -9 -29 -9 -43 0 -14 -10 -45 -22 -68 -12 -23 -25 -50 -30
-60 -23 -48 41 -128 90 -113 12 4 26 -2 40 -19 46 -53 168 -21 186 50 10 39
28 30 25 -12 -5 -86 12 -156 48 -201 42 -52 111 -86 146 -73 50 19 97 135 97
239 0 28 3 52 7 52 3 0 21 -18 40 -40 19 -22 40 -40 47 -40 7 0 21 -9 30 -19
23 -26 83 -32 118 -12 15 9 28 21 28 27 0 6 9 21 20 34 11 13 20 29 20 36 0
18 -41 128 -50 134 -4 3 -10 14 -14 25 -3 11 -26 51 -51 90 -25 38 -45 73 -45
77 0 4 -6 8 -14 8 -8 0 -23 16 -35 35 -27 47 -19 63 76 145 41 36 78 72 83 81
10 18 -7 101 -33 161 -9 21 -32 53 -51 73 -61 61 -120 71 -176 30 -19 -14 -39
-25 -45 -25 -14 0 -115 -113 -115 -128 0 -5 -7 -15 -15 -22 -12 -10 -19 -9
-37 4 -13 9 -58 39 -101 67 -75 49 -77 52 -72 83 6 30 4 34 -44 59 -28 16 -53
32 -56 38 -4 5 -22 16 -40 23 -19 8 -58 33 -88 55 -30 23 -57 41 -60 41 -9 0
-125 57 -169 83 -136 81 -233 148 -288 200 -14 13 -45 35 -70 50 -25 15 -54
33 -64 42 -20 15 -20 15 0 29 10 8 44 22 74 31 30 9 75 25 100 35 91 37 101
40 116 40 9 0 27 9 40 19 14 11 43 22 65 26 44 8 156 56 201 87 14 10 47 21
72 24 44 6 51 4 129 -48 113 -75 125 -79 215 -72 70 6 79 4 96 -15 26 -29 74
-27 116 4 19 14 39 25 45 25 7 0 20 9 30 20 10 11 37 31 61 45 24 14 47 31 51
38 4 7 26 25 48 42 68 49 138 133 157 188 39 108 10 183 -114 286 -36 31 -69
62 -72 68 -3 8 9 16 34 23 22 6 44 19 50 30 7 14 23 20 58 22 43 3 47 5 47 28
0 14 8 37 19 53 15 21 21 25 32 16 8 -6 14 -15 14 -20 0 -5 18 -28 40 -50 22
-23 56 -69 76 -103 68 -114 62 -107 84 -94 16 10 20 24 20 65 0 28 -4 54 -9
57 -4 3 -14 25 -20 48 -17 60 -52 98 -91 98 -39 0 -45 17 -31 77 9 35 19 51
36 60 23 10 30 6 82 -43 32 -30 60 -55 63 -56 3 -2 18 -20 33 -40 15 -21 34
-38 41 -38 8 0 27 -7 42 -15 60 -31 73 -14 41 53 -23 48 -23 48 -4 74 12 16
21 49 24 91 4 50 9 64 19 60 24 -9 16 25 -8 38 -13 6 -32 20 -43 30 -12 10
-54 35 -95 54 -79 39 -160 100 -160 120 0 15 81 105 94 105 4 0 26 13 49 28
98 67 126 83 202 116 44 19 84 42 90 50 15 24 -16 67 -68 94 -43 23 -44 25
-51 83 -3 33 -11 69 -17 81 -7 13 -10 61 -7 129 l3 108 -78 41 c-62 32 -82 38
-93 29 -8 -6 -14 -18 -14 -25 0 -8 -25 -71 -56 -142 -75 -173 -108 -273 -96
-292 7 -11 2 -24 -18 -49 l-28 -33 -41 42 c-33 34 -41 50 -41 79 0 20 -4 53
-9 74 -5 21 -5 39 0 43 5 3 5 12 0 22 -5 10 -6 24 -2 32 4 8 4 69 1 135 -6
105 -3 139 22 270 45 243 99 449 138 525 10 20 21 56 25 81 l7 45 -87 22 c-81
20 -89 20 -112 5 -23 -15 -24 -21 -19 -63 5 -38 2 -52 -14 -73 -11 -14 -20
-28 -20 -32 0 -7 -63 -88 -90 -116 -8 -8 -24 -28 -35 -44 -11 -15 -34 -44 -51
-64 -17 -20 -63 -80 -103 -133 -39 -54 -76 -98 -81 -98 -13 0 -26 27 -44 95
-8 33 -29 110 -46 170 -45 160 -50 189 -64 438 -4 56 -11 149 -16 207 -6 58
-13 135 -16 172 l-5 66 -41 4 c-23 2 -60 1 -81 -2 l-40 -5 -75 -145 c-41 -80
-84 -169 -94 -199 -11 -30 -28 -72 -39 -92 -10 -21 -19 -45 -19 -53 0 -8 -8
-29 -17 -48 -9 -18 -19 -40 -23 -48 -4 -8 -14 -16 -23 -18 -18 -4 -70 49 -98
98 -10 19 -46 76 -79 125 -33 50 -71 110 -85 135 -14 25 -30 52 -35 60 -5 8
-43 85 -85 171 -77 161 -122 241 -166 297 -25 32 -29 34 -112 39 l-87 6 0 -29z"/>
<path d="M1620 4710 c0 -6 7 -10 15 -10 8 0 15 2 15 4 0 2 -7 6 -15 10 -8 3
-15 1 -15 -4z"/>
<path d="M5399 2355 c-9 -9 -248 -34 -314 -33 -83 1 -123 -14 -103 -40 20 -26
39 -39 85 -61 59 -29 59 -37 2 -44 -54 -7 -79 -20 -79 -43 0 -19 -32 -31 -106
-39 -85 -9 -168 -27 -175 -38 -9 -12 0 -44 16 -57 9 -8 34 -4 88 15 71 23 88
25 279 25 223 0 277 5 285 28 13 32 -26 42 -161 42 -104 0 -127 2 -117 13 9 8
46 11 132 9 93 -2 119 1 119 11 0 7 -5 18 -11 24 -8 8 -6 18 5 36 16 23 16 26
-9 55 l-26 31 23 5 c13 3 60 7 104 9 141 8 167 48 35 54 -37 1 -70 1 -72 -2z"/>
<path d="M5400 1753 c-19 -2 -78 -10 -130 -17 -52 -8 -140 -20 -195 -26 -117
-14 -175 -34 -175 -62 0 -26 25 -33 52 -14 28 20 159 20 233 1 28 -7 42 -13
33 -14 -10 0 -32 -10 -50 -21 -18 -11 -42 -20 -53 -20 -11 0 -47 -14 -80 -30
-33 -16 -67 -30 -75 -30 -8 0 -26 -9 -39 -19 -20 -15 -23 -24 -17 -54 9 -48
41 -66 131 -74 77 -6 83 -9 103 -56 11 -26 10 -29 -21 -47 -17 -11 -44 -20
-59 -20 -56 0 -75 -25 -43 -60 14 -15 13 -18 -10 -30 -14 -7 -25 -20 -25 -27
0 -23 32 -27 81 -10 25 9 58 17 72 17 14 0 38 5 54 11 15 6 62 15 103 19 41 5
96 11 123 15 45 7 47 7 47 -17 0 -37 -19 -48 -79 -48 -83 0 -319 -27 -371 -43
-83 -24 -52 -78 32 -56 64 17 128 22 128 11 0 -5 -28 -15 -62 -22 -35 -7 -79
-17 -98 -23 -19 -5 -41 -11 -49 -14 -9 -2 -11 -11 -6 -26 9 -31 22 -95 28
-140 6 -46 7 -47 49 -56 l33 -7 -37 -35 c-44 -40 -63 -111 -52 -194 6 -50 35
-118 54 -130 5 -3 10 -15 10 -26 0 -13 -7 -19 -24 -19 -33 0 -49 -22 -32 -45
12 -17 20 -17 143 -5 71 7 136 11 144 8 8 -3 -8 -16 -40 -33 -30 -15 -78 -44
-105 -65 -28 -21 -80 -50 -116 -65 -36 -15 -72 -33 -80 -41 -21 -20 -2 -47 41
-56 28 -5 43 -1 79 22 52 32 88 44 180 59 36 6 92 15 125 21 33 5 90 9 127 8
68 -2 98 10 98 39 0 33 -45 33 -274 -3 -54 -8 -100 -14 -102 -12 -8 8 101 71
173 99 101 41 122 55 116 79 -3 10 4 32 14 47 65 94 67 156 7 208 l-37 32 31
19 c42 24 47 53 46 246 -1 125 1 158 12 162 19 7 18 26 -3 41 -14 11 -16 29
-15 116 1 57 4 110 7 119 3 9 -8 35 -25 58 -28 39 -28 58 2 47 19 -7 42 11 35
28 -5 15 -30 17 -320 33 l-118 7 63 28 c35 16 79 31 98 34 31 5 84 18 130 32
26 8 -29 40 -79 47 -71 9 -141 22 -147 28 -5 5 159 19 261 23 32 1 41 5 43 22
3 19 -24 35 -53 31 -5 -1 -26 -3 -45 -5z"/>
</g>
</svg>
